<?xml version="1.0" encoding="UTF-8" standalone="no"?>
<!-- Created with Inkscape (http://www.inkscape.org/) -->

<svg
   width="149.3765mm"
   height="75.857399mm"
   viewBox="0 0 149.3765 75.857399"
   version="1.1"
   id="svg4588"
   inkscape:version="1.1.2 (0a00cf5339, 2022-02-04)"
   sodipodi:docname="crow.svg"
   xmlns:inkscape="http://www.inkscape.org/namespaces/inkscape"
   xmlns:sodipodi="http://sodipodi.sourceforge.net/DTD/sodipodi-0.dtd"
   xmlns="http://www.w3.org/2000/svg"
   xmlns:svg="http://www.w3.org/2000/svg">
  <sodipodi:namedview
     id="namedview4590"
     pagecolor="#ffffff"
     bordercolor="#666666"
     borderopacity="1.0"
     inkscape:pageshadow="2"
     inkscape:pageopacity="0.0"
     inkscape:pagecheckerboard="0"
     inkscape:document-units="mm"
     showgrid="false"
     inkscape:zoom="0.58974467"
     inkscape:cx="281.47775"
     inkscape:cy="143.28235"
     inkscape:window-width="1503"
     inkscape:window-height="938"
     inkscape:window-x="0"
     inkscape:window-y="0"
     inkscape:window-maximized="1"
     inkscape:current-layer="layer1" />
  <defs
     id="defs4585">
    <clipPath
       clipPathUnits="userSpaceOnUse"
       id="clipPath4622">
      <path
         d="M 0,360 H 504 V 0 H 0 Z"
         id="path4620" />
    </clipPath>
  </defs>
  <g
     inkscape:label="Layer 1"
     inkscape:groupmode="layer"
     id="layer1"
     transform="translate(-30.293618,-110.79563)">
    <path
       d="m 106.69457,110.79563 c 0.15028,0.83785 0.36759,1.6704 0.43426,2.5146 0.0931,1.17369 0.81739,1.79176 1.60867,2.56752 1.02588,1.00541 2.36326,1.88736 2.31952,3.74403 -0.0593,2.53188 0.91228,4.87115 2.0574,7.08483 0.21025,0.40605 1.09008,0.72743 1.61007,0.66464 1.79847,-0.21767 3.61739,-0.47978 5.34847,-0.99413 1.86619,-0.55422 3.66677,-1.35573 5.45182,-2.14948 2.50684,-1.11513 5.00592,-1.17933 7.73289,-0.81315 2.89913,0.38947 5.58871,1.48272 8.44339,1.90923 1.55046,0.23178 3.13055,0.26811 4.67889,0.51118 3.41136,0.53516 6.81954,1.10031 10.21221,1.74201 2.11349,0.40005 4.17618,1.01389 5.92737,2.36044 0.23072,0.1778 0.42686,0.40111 0.768,0.72672 -1.69722,0.9084 -3.32458,-7.9e-4 -5.20489,0.21308 2.39254,0.89006 4.53426,1.63512 6.63329,2.48461 1.50847,0.61066 2.98908,1.30634 4.42947,2.06481 1.40582,0.74013 2.78448,1.5487 4.09822,2.44087 0.84702,0.57538 1.5554,1.35502 2.45781,2.16077 -2.50085,1.67181 -4.5586,-0.11289 -6.87847,-0.30057 1.98897,1.22343 3.87597,2.29341 5.66279,3.51014 1.65806,1.12924 3.22228,2.39853 4.79284,3.65054 0.2346,0.18698 0.47096,0.7613 0.36583,0.90241 -0.20849,0.27975 -0.64523,0.50976 -1.00471,0.53693 -2.52166,0.18767 -4.68277,-0.95533 -6.87846,-1.95369 -0.24412,-0.11077 -0.48084,-0.23742 -0.72108,-0.35666 -0.0504,0.0861 -0.10124,0.17251 -0.15134,0.25894 0.75918,0.50659 1.5434,0.98037 2.2726,1.52718 1.22272,0.91687 2.44051,1.84538 3.59797,2.84162 0.47167,0.4057 0.78035,1.00189 1.16311,1.5113 -0.65934,0.2219 -1.38571,0.74154 -1.96462,0.61031 -1.73002,-0.393 -3.40889,-1.02129 -5.09375,-1.5995 -0.57715,-0.19826 -1.11231,-0.52105 -1.66653,-0.78704 -0.10548,0.12418 -0.21096,0.24835 -0.31644,0.37253 1.69722,1.39171 3.39443,2.78377 5.09164,4.17583 l -0.38029,0.55069 c -1.42346,0.84666 -2.80176,0.33196 -4.16737,-0.32985 -1.30704,-0.63359 -2.60596,-1.28376 -4.05059,-1.99707 1.0033,1.13523 2.5206,1.7466 2.56822,3.41136 -1.92334,1.0361 -3.45475,-0.10231 -5.01262,-0.8255 -1.05304,-0.48895 -2.01401,-1.17758 -3.05752,-1.80199 -0.3041,1.7526 -0.95109,2.12443 -2.79188,1.61678 -0.98849,-0.27235 -1.94099,-0.67522 -2.90936,-1.02024 -0.88547,1.09644 -2.78942,1.37654 -4.35751,0.57327 -0.61807,-0.31644 -1.0093,-0.22402 -1.68593,0.0363 -0.88406,0.33972 -2.04152,0.14534 -3.03671,-0.0476 -0.62971,-0.12206 -1.16064,-0.31115 -1.7593,0.0505 -0.16863,0.10195 -0.44556,0.0198 -0.6724,0.0328 -1.30245,0.0748 -2.60702,0.12523 -3.90525,0.248 -0.34466,0.0325 -0.65581,0.32914 -1.00365,0.43674 -0.80363,0.24871 -1.62207,0.44979 -2.43134,0.68227 -0.58244,0.16687 -1.14865,0.40781 -1.74061,0.51894 -1.0668,0.20108 -2.14736,0.32949 -3.04871,0.46249 -0.91722,0.30515 -1.7018,0.64558 -2.52165,0.81033 -0.53022,0.10654 -1.3395,-0.29916 -1.63336,-0.0374 -1.60479,1.43016 -3.5881,0.36512 -5.31177,0.93592 -0.5394,0.1785 -1.23332,-0.13124 -1.8595,-0.18451 -0.33796,-0.0286 -0.74048,-0.0981 -1.01318,0.0437 -1.10313,0.57292 -2.07715,0.71897 -3.03776,-0.31573 -0.45615,-0.49142 -1.10808,-0.80116 -1.91276,-1.36102 0,1.00718 -0.0854,1.96321 0.0187,2.89843 0.17356,1.54692 0.36794,3.10479 0.7373,4.61327 0.50871,2.0768 1.29717,4.08693 1.76847,6.17008 0.70168,3.10092 2.40912,5.97182 2.2726,9.24596 -0.0607,1.45097 -0.65546,2.66065 -2.03236,3.60574 -1.00929,0.6925 -1.78787,0.57361 -2.74354,0.34148 -0.20285,-0.0494 -0.49989,-0.18379 -0.60255,-0.0981 -0.73554,0.61348 -1.43192,1.27353 -2.35867,2.11737 -0.61419,-0.23953 -1.54517,-0.60254 -2.63137,-1.02622 -0.33937,0.29386 -0.91793,0.79516 -1.57903,1.36736 -1.19416,-1.639 -2.47474,-0.68227 -3.77931,-0.0226 -0.60184,-0.85266 -1.17193,-1.36666 -2.38337,-0.86395 -0.40781,0.16898 -1.330676,-0.9024 -2.230612,-1.5628 0.07832,-0.0201 -0.155929,0.0437 -0.391938,0.10018 -1.586087,0.37854 -2.570337,-0.47378 -3.366558,-1.67146 -0.83326,-1.25412 -1.271762,-2.66417 -1.077735,-4.14337 0.131233,-1.00083 0.591256,-1.96074 0.92075,-2.93335 1.120775,-3.3087 2.29376,-6.60047 3.356327,-9.92717 0.602191,-1.88524 1.063625,-3.81917 1.502129,-5.75027 0.08008,-0.35349 -0.14605,-0.92745 -0.427921,-1.17687 -0.420158,-0.37218 -1.0287,-0.52317 -1.533877,-0.80962 -0.877006,-0.49813 -0.967316,0.33443 -1.299281,0.74541 -0.964846,1.19592 -2.187575,0.80716 -3.391604,0.57503 -0.240948,-0.0466 -0.491421,-0.0783 -0.735896,-0.0677 -0.7112,0.0303 -1.516592,0.3235 -2.114196,0.0847 -1.611135,-0.64417 -3.412773,0.25577 -4.907139,-0.66004 -1.087613,-0.6664 -2.269771,-0.42898 -3.388077,-0.6858 -0.550686,-0.12665 -1.007534,-0.61983 -1.553282,-0.82127 -0.627591,-0.23178 -1.30175,-0.35701 -1.966029,-0.46531 -0.43815,-0.0716 -0.930981,0.0762 -1.336675,-0.0607 -1.413581,-0.47625 -2.956631,-0.80716 -4.148666,-1.63019 -1.02235,-0.70556 -1.904296,-0.67134 -2.94005,-0.52317 -0.294571,0.042 -0.590198,0.0804 -0.886884,0.10866 -0.149931,0.0141 -0.360187,0.0663 -0.446264,-0.009 -1.267884,-1.11513 -2.645482,-0.0695 -3.953227,-0.22966 -0.560213,-0.0691 -1.093965,-0.33726 -1.653823,-0.42969 -0.323498,-0.0536 -0.694973,0.006 -1.010709,0.11466 -1.135943,0.38911 -2.285648,0.63429 -3.470981,0.32314 -0.42545,-0.11112 -0.809625,-0.37959 -1.235075,-0.58737 -1.2573,0.32561 -2.640894,0.75071 -4.053769,1.02729 -1.051277,0.20567 -1.763887,-0.23954 -1.739193,-1.45557 -1.53035,0.69286 -3.009548,1.41994 -4.536369,2.02636 -0.636413,0.25294 -1.373013,0.30939 -2.06869,0.33514 -0.354541,0.0134 -1.021291,-0.23495 -1.023408,-0.37253 -0.0064,-0.43357 0.11571,-0.9832 0.401815,-1.28588 1.169104,-1.23684 2.417937,-2.39889 3.483327,-3.79659 -1.012825,0.57114 -2.0574,1.09255 -3.031067,1.72402 -1.733198,1.12466 -3.58528,1.92299 -5.645503,2.10608 -0.443794,0.0395 -1.074914,-0.22754 -1.334558,-0.56938 -0.163689,-0.2159 0.06879,-0.97508 0.354894,-1.24566 1.002948,-0.94685 2.107495,-1.78611 3.170414,-2.66982 0.37077,-0.30833 0.733073,-0.62724 0.9779,-1.1811 -0.51435,0.24024 -1.016352,0.51118 -1.544461,0.71438 -2.187928,0.84208 -4.294716,2.12337 -6.799086,1.36172 -0.284692,-0.0868 -0.531989,-0.2988 -0.796219,-0.45297 0.162983,-0.27869 0.26035,-0.64735 0.499533,-0.82232 1.619956,-1.18393 3.267075,-2.33151 4.911725,-3.48157 0.600075,-0.4198 1.217789,-0.81421 1.717322,-1.44603 -1.195211,0.45402 -2.35973,1.03857 -3.593394,1.3282 -1.422047,0.33373 -2.902656,0.43745 -4.364214,0.56974 -0.311856,0.0282 -0.897819,-0.21378 -0.924278,-0.39546 -0.04939,-0.33373 0.116417,-0.85619 0.378531,-1.05304 1.483077,-1.11443 2.969683,-2.2405 4.553655,-3.20076 2.023534,-1.22625 4.140553,-2.29834 6.447014,-3.56305 -1.413228,0.30691 -2.567869,0.63076 -3.744736,0.78987 -0.882297,0.11924 -1.8161,0.15416 -2.685697,-0.003 -1.159228,-0.20955 -1.3208,-0.76871 -0.359834,-1.4157 1.845028,-1.24178 3.724628,-2.50402 5.751337,-3.38773 3.283655,-1.43157 6.693957,-2.5728 10.058047,-3.8167 0.68439,-0.25329 1.401585,-0.41804 2.093735,-0.68792 -1.702504,-0.0293 -3.456869,0.56092 -5.046837,-0.3309 -0.02681,-0.1457 -0.05398,-0.29069 -0.08079,-0.43603 0.734838,-0.38876 1.434396,-0.87701 2.2098,-1.149 3.381375,-1.18533 6.880931,-1.78611 10.449277,-2.09233 1.847498,-0.15875 3.672771,-0.56585 5.513565,-0.82162 0.999773,-0.13864 2.025298,-0.3503 3.014485,-0.25929 2.435579,0.22366 4.567063,-0.9652 6.87705,-1.3088 3.389842,-0.50412 6.698192,-0.85267 9.852731,1.03963 2.987675,1.79247 6.387042,2.52483 9.715852,3.36727 1.159227,0.29351 2.365023,0.008 3.14325,-1.13701 1.341615,-1.97449 2.373847,-4.07599 2.798237,-6.45054 0.28857,-1.61572 0.91651,-3.05717 2.4063,-3.93206 0.9211,-0.54116 1.31233,-1.3395 1.47743,-2.35832 0.14675,-0.90805 0.43392,-1.79317 0.65934,-2.68852 z"
       style="fill:#f1a638;fill-opacity:1;fill-rule:nonzero;stroke:none;stroke-width:0.352777"
       id="path4626" />
  </g>
</svg>
